<svg width="512" height="512" viewBox="0 0 512 512" fill="none" xmlns="http://www.w3.org/2000/svg">
  <defs>
    <linearGradient id="g" x1="0" y1="0" x2="1" y2="1">
      <stop offset="0%" stop-color="#10b981"/>
      <stop offset="100%" stop-color="#0ea5e9"/>
    </linearGradient>
  </defs>
  <rect width="512" height="512" rx="120" fill="url(#g)"/>
  <circle cx="170" cy="170" r="90" fill="rgba(255,255,255,0.2)"/>
  <circle cx="380" cy="140" r="60" fill="rgba(255,255,255,0.15)"/>
  <g fill="#ffffff">
    <rect x="140" y="170" width="232" height="190" rx="28" fill="rgba(255,255,255,0.12)"/>
    <path d="M182 222h88c30 0 52 20 52 50s-22 50-52 50h-35v-28h35c14 0 24-9 24-22s-10-22-24-22h-88v-28zm0 78h88c30 0 52 20 52 50s-22 50-52 50h-88v-28h88c14 0 24-9 24-22s-10-22-24-22h-88v-28z"/>
    <rect x="156" y="140" width="200" height="28" rx="14"/>
  </g>
  <text x="256" y="320" text-anchor="middle" font-family="Sora, Arial, sans-serif" font-size="90" font-weight="700" fill="white">D+</text>
</svg>
